<svg xmlns="http://www.w3.org/2000/svg" xmlns:xlink="http://www.w3.org/1999/xlink" width="500" zoomAndPan="magnify" viewBox="0 0 375 187.499995" height="250" preserveAspectRatio="xMidYMid meet" version="1.0"><defs><g/><clipPath id="408ff7c2e3"><path d="M 278.324219 90 L 374 90 L 374 131.820312 L 278.324219 131.820312 Z M 278.324219 90 " clip-rule="nonzero"/></clipPath><clipPath id="a134d68bcb"><path d="M 340 55.039062 L 352 55.039062 L 352 109 L 340 109 Z M 340 55.039062 " clip-rule="nonzero"/></clipPath></defs><g clip-path="url(#408ff7c2e3)"><path fill="#203555" d="M 373.277344 90.5625 L 361.789062 90.769531 C 361.25 90.78125 360.941406 91.390625 361.25 91.832031 L 363.027344 94.378906 C 363.050781 94.414062 363.042969 94.460938 363.007812 94.484375 L 324.882812 121.636719 C 324.835938 121.671875 324.765625 121.636719 324.765625 121.574219 L 324.765625 100.886719 C 324.765625 100.613281 324.621094 100.363281 324.390625 100.222656 C 324.15625 100.082031 323.863281 100.078125 323.625 100.207031 L 278.75 124.671875 C 278.570312 124.769531 278.4375 124.933594 278.378906 125.132812 C 278.320312 125.328125 278.34375 125.539062 278.441406 125.71875 L 280.359375 129.253906 C 280.5625 129.632812 281.03125 129.769531 281.40625 129.566406 L 319.097656 109.019531 C 319.148438 108.992188 319.207031 109.027344 319.207031 109.085938 L 319.207031 130.964844 C 319.207031 131.183594 319.277344 131.410156 319.433594 131.566406 C 319.589844 131.714844 319.785156 131.789062 319.980469 131.789062 C 320.136719 131.789062 320.292969 131.742188 320.425781 131.648438 L 366.195312 99.050781 C 366.226562 99.027344 366.273438 99.035156 366.300781 99.070312 L 368.601562 102.371094 C 368.914062 102.8125 369.589844 102.730469 369.78125 102.226562 L 373.917969 91.480469 C 374.089844 91.03125 373.753906 90.554688 373.277344 90.5625 " fill-opacity="1" fill-rule="nonzero"/></g><path fill="#468b98" d="M 307.128906 76.550781 L 307.128906 106.863281 C 307.128906 106.890625 307.117188 106.917969 307.089844 106.929688 L 296.203125 112.867188 C 296.152344 112.894531 296.09375 112.855469 296.09375 112.800781 L 296.09375 76.550781 C 296.09375 76.507812 296.125 76.472656 296.167969 76.472656 L 307.054688 76.472656 C 307.097656 76.472656 307.128906 76.507812 307.128906 76.550781 " fill-opacity="1" fill-rule="nonzero"/><g clip-path="url(#a134d68bcb)"><path fill="#0071bc" d="M 351.273438 55.136719 L 351.273438 100.335938 C 351.273438 100.359375 351.261719 100.382812 351.242188 100.394531 L 340.351562 108.148438 C 340.304688 108.183594 340.234375 108.148438 340.234375 108.089844 L 340.234375 55.136719 C 340.234375 55.09375 340.269531 55.058594 340.3125 55.058594 L 351.199219 55.058594 C 351.238281 55.058594 351.273438 55.09375 351.273438 55.136719 " fill-opacity="1" fill-rule="nonzero"/></g><path fill="#00adef" d="M 335.839844 82.738281 L 335.839844 111.328125 C 335.839844 111.351562 335.828125 111.375 335.808594 111.386719 L 326.894531 117.738281 C 326.84375 117.773438 326.773438 117.738281 326.773438 117.675781 L 326.773438 100.886719 C 326.773438 99.910156 326.253906 98.992188 325.414062 98.492188 C 325.238281 98.386719 325.050781 98.300781 324.855469 98.238281 C 324.824219 98.230469 324.804688 98.203125 324.804688 98.171875 L 324.804688 82.738281 C 324.804688 82.695312 324.835938 82.664062 324.878906 82.664062 L 335.761719 82.664062 C 335.804688 82.664062 335.839844 82.695312 335.839844 82.738281 " fill-opacity="1" fill-rule="nonzero"/><path fill="#203555" d="M 321.484375 64.0625 L 321.484375 99.039062 C 321.484375 99.066406 321.46875 99.09375 321.445312 99.105469 L 310.5625 105.039062 C 310.511719 105.066406 310.449219 105.03125 310.449219 104.972656 L 310.449219 64.0625 C 310.449219 64.019531 310.484375 63.988281 310.523438 63.988281 L 321.410156 63.988281 C 321.449219 63.988281 321.484375 64.019531 321.484375 64.0625 " fill-opacity="1" fill-rule="nonzero"/><g fill="#203555" fill-opacity="1"><g transform="translate(17.191536, 112.699733)"><g><path d="M 10.609375 0 L 19.460938 0 L 19.460938 -22.585938 L 28.839844 -22.585938 L 28.839844 -30.820312 L 1.234375 -30.820312 L 1.234375 -22.585938 L 10.609375 -22.585938 Z M 10.609375 0 "/></g></g></g><g fill="#203555" fill-opacity="1"><g transform="translate(47.262874, 112.699733)"><g><path d="M 0.21875 0 L 9.640625 0 L 11.316406 -4.359375 L 21.839844 -4.359375 L 23.511719 0 L 32.976562 0 L 21.003906 -30.820312 L 12.195312 -30.820312 Z M 13.164062 -10.875 L 16.597656 -20.429688 L 20.035156 -10.875 Z M 13.164062 -10.875 "/></g></g></g><g fill="#203555" fill-opacity="1"><g transform="translate(80.460218, 112.699733)"><g><path d="M 0.925781 0 L 11.273438 0 L 16.953125 -9.113281 L 19.503906 -5.019531 L 22.585938 0 L 32.976562 0 L 22.761719 -15.808594 L 32.40625 -30.820312 L 22.5 -30.820312 L 19.8125 -26.550781 L 16.953125 -21.925781 L 14.046875 -26.550781 L 11.402344 -30.820312 L 1.453125 -30.820312 L 11.140625 -15.71875 Z M 0.925781 0 "/></g></g></g><g fill="#203555" fill-opacity="1"><g transform="translate(114.406051, 112.699733)"><g><path d="M 14.925781 0.660156 C 22.984375 0.660156 28.441406 -4.316406 28.441406 -11.667969 C 28.441406 -18.976562 22.984375 -23.953125 14.925781 -23.953125 C 6.824219 -23.953125 1.363281 -18.976562 1.363281 -11.667969 C 1.363281 -4.316406 6.824219 0.660156 14.925781 0.660156 Z M 9.640625 -11.667969 C 9.640625 -14.75 11.84375 -16.953125 14.925781 -16.953125 C 18.007812 -16.953125 20.164062 -14.75 20.164062 -11.667969 C 20.164062 -8.542969 18.007812 -6.339844 14.925781 -6.339844 C 11.84375 -6.339844 9.640625 -8.542969 9.640625 -11.667969 Z M 9.640625 -11.667969 "/></g></g></g><g fill="#203555" fill-opacity="1"><g transform="translate(146.50532, 112.699733)"><g><path d="M 4.492188 0 L 8.320312 0 L 8.320312 -24.128906 L 25.359375 0 L 28.972656 0 L 28.972656 -30.820312 L 25.183594 -30.820312 L 25.183594 -6.691406 L 8.144531 -30.820312 L 4.492188 -30.820312 Z M 4.492188 0 "/></g></g></g><g fill="#203555" fill-opacity="1"><g transform="translate(183.313322, 112.699733)"><g><path d="M 0.75 0 L 4.886719 0 L 7.707031 -7 L 22.71875 -7 L 25.625 0 L 29.71875 0 L 17.039062 -30.820312 L 13.429688 -30.820312 Z M 9.203125 -10.609375 L 15.234375 -25.40625 L 21.265625 -10.609375 Z M 9.203125 -10.609375 "/></g></g></g><g fill="#203555" fill-opacity="1"><g transform="translate(217.127394, 112.699733)"><g><path d="M 4.492188 0 L 8.367188 0 L 8.367188 -11.050781 L 15.144531 -11.050781 L 22.675781 0 L 27.34375 0 L 19.59375 -11.449219 C 24.085938 -12.546875 26.859375 -15.9375 26.859375 -20.914062 C 26.859375 -27.035156 22.632812 -30.820312 16.246094 -30.820312 L 4.492188 -30.820312 Z M 8.367188 -14.75 L 8.367188 -27.121094 L 15.808594 -27.121094 C 20.296875 -27.121094 22.894531 -24.832031 22.894531 -20.914062 C 22.894531 -16.996094 20.296875 -14.75 15.808594 -14.75 Z M 8.367188 -14.75 "/></g></g></g><g fill="#203555" fill-opacity="1"><g transform="translate(250.457154, 112.699733)"><g><path d="M 12.328125 0 L 16.113281 0 L 16.113281 -11.09375 L 27.695312 -30.820312 L 23.335938 -30.820312 L 14.265625 -15.234375 L 10.257812 -22.191406 L 5.238281 -30.820312 L 0.75 -30.820312 L 12.328125 -11.09375 Z M 12.328125 0 "/></g></g></g></svg>